<svg width="23" height="30" viewBox="0 0 23 30" fill="none" xmlns="http://www.w3.org/2000/svg">
<path fill-rule="evenodd" clip-rule="evenodd" d="M11.75 12.5C12.4404 12.5 13 13.0596 13 13.75L13 28.75C13 29.4404 12.4404 30 11.75 30C11.0596 30 10.5 29.4404 10.5 28.75L10.5 13.75C10.5 13.0596 11.0596 12.5 11.75 12.5Z" fill="white"/>
<path fill-rule="evenodd" clip-rule="evenodd" d="M16.75 5C17.4404 5 18 5.55964 18 6.25V28.75C18 29.4404 17.4404 30 16.75 30C16.0596 30 15.5 29.4404 15.5 28.75L15.5 6.25C15.5 5.55964 16.0596 5 16.75 5Z" fill="white"/>
<path fill-rule="evenodd" clip-rule="evenodd" d="M21.75 17.5C22.4404 17.5 23 18.0596 23 18.75L23 28.75C23 29.4404 22.4404 30 21.75 30C21.0596 30 20.5 29.4404 20.5 28.75L20.5 18.75C20.5 18.0596 21.0596 17.5 21.75 17.5Z" fill="white"/>
<path fill-rule="evenodd" clip-rule="evenodd" d="M1.75 17.5C2.44036 17.5 3 18.0596 3 18.75L3 28.75C3 29.4404 2.44036 30 1.75 30C1.05964 30 0.5 29.4404 0.5 28.75L0.5 18.75C0.5 18.0596 1.05964 17.5 1.75 17.5Z" fill="white"/>
<path fill-rule="evenodd" clip-rule="evenodd" d="M6.75 5.46392e-08C7.44036 2.44628e-08 8 0.559644 8 1.25L8 28.75C8 29.4404 7.44036 30 6.75 30C6.05965 30 5.5 29.4404 5.5 28.75L5.5 1.25C5.5 0.559644 6.05964 8.48156e-08 6.75 5.46392e-08Z" fill="white"/>
</svg>
