<svg width="191" height="54" viewBox="0 0 191 54" fill="none" xmlns="http://www.w3.org/2000/svg">
<path fill-rule="evenodd" clip-rule="evenodd" d="M27.265 0C12.2318 1.33972e-06 -1.9476e-06 12.0636 0 27C1.97573e-06 41.9341 12.228 53.9962 27.258 54H27.265C42.2982 54 54.5301 41.9364 54.5301 27C54.5301 12.0652 42.3009 0.00259355 27.2699 3.98548e-06L27.265 0ZM27.2732 48.2459C39.1694 48.2415 48.7667 38.7064 48.7667 27C48.7667 25.1702 48.5322 23.3935 48.0912 21.698C48.0982 21.9153 48.1017 22.1334 48.1017 22.3525C48.1017 33.495 38.9512 42.4918 27.7084 42.4918C26.729 42.4918 25.935 41.6991 25.935 40.7213C25.935 39.7435 26.729 38.9508 27.7084 38.9508C37.0326 38.9508 44.5551 31.4995 44.5551 22.3525C44.5551 22.0891 44.5488 21.8271 44.5365 21.5667C42.7163 28.5885 35.7448 33.6393 27.7084 33.6393C26.729 33.6393 25.935 32.8467 25.935 31.8689C25.935 30.891 26.729 30.0984 27.7084 30.0984C35.479 30.0984 41.4517 24.4779 41.4517 17.9262C41.4517 12.078 36.6926 6.97168 30.1438 5.94265C29.2024 5.81831 28.2414 5.7541 27.265 5.7541L27.2583 5.7541C15.3615 5.75767 5.76334 15.2931 5.76334 27C5.76334 28.8435 6.00135 30.6332 6.44887 32.3402C6.4352 32.0373 6.4283 31.7326 6.4283 31.4262C6.4283 20.1423 15.7968 11.0656 27.265 11.0656C28.2444 11.0656 29.0383 11.8582 29.0383 12.8361C29.0383 13.8139 28.2444 14.6065 27.265 14.6065C17.6764 14.6065 9.97497 22.176 9.97497 31.4262C9.97497 31.7627 9.98516 32.097 10.0053 32.4287C11.8769 25.3836 19.0574 20.3606 27.265 20.3606C28.2444 20.3606 29.0383 21.1533 29.0383 22.1311C29.0383 23.1089 28.2444 23.9016 27.265 23.9016C19.2001 23.9016 13.0783 29.566 13.0783 36.0738C13.0783 42.5816 19.2001 48.2459 27.265 48.2459C27.2677 48.2459 27.2705 48.2459 27.2732 48.2459Z" fill="white"/>
<path fill-rule="evenodd" clip-rule="evenodd" d="M69.059 33.6282C69.059 33.6847 69.0637 33.74 69.0729 33.7938C69.4173 41.8941 76.1036 48.3555 84.3016 48.3555C92.7199 48.3555 99.5442 41.5421 99.5442 33.1373C99.5442 24.7326 92.7199 17.9191 84.3016 17.9191C81.2151 17.9191 78.3429 18.835 75.9427 20.4095V11.2828C75.9427 7.62766 72.9749 4.6646 69.3139 4.6646C69.1731 4.6646 69.059 4.77857 69.059 4.91915V33.6282ZM84.3016 41.4828C88.9181 41.4828 92.6605 37.6365 92.6605 32.8919C92.6605 28.1473 88.9181 24.301 84.3016 24.301C79.6851 24.301 75.9427 28.1473 75.9427 32.8919C75.9427 37.6365 79.6851 41.4828 84.3016 41.4828Z" fill="white"/>
<path d="M107.56 12.7742C109.899 12.7742 111.643 11.1183 111.643 8.74064C111.643 6.40541 109.899 4.6646 107.56 4.6646C105.179 4.6646 103.478 6.40541 103.478 8.74064C103.478 11.1183 105.179 12.7742 107.56 12.7742Z" fill="white"/>
<path d="M103.97 47.3148C103.97 47.857 104.41 48.2966 104.953 48.2966H109.89C110.433 48.2966 110.873 47.857 110.873 47.3148V17.6835C110.873 17.5425 110.758 17.4282 110.617 17.4282C106.946 17.4282 103.97 20.3998 103.97 24.0653V47.3148Z" fill="white"/>
<path d="M130.571 41.4373C131.249 41.3775 131.937 41.8828 131.937 42.5618V47.1569C131.937 47.6075 131.629 47.9955 131.183 48.0622C130.521 48.1612 129.436 48.277 127.984 48.277C121.883 48.277 119.96 43.4071 119.96 39.3424V25.3024C119.96 24.7602 119.519 24.3206 118.976 24.3206H116.754C116.211 24.3206 115.77 23.881 115.77 23.3388V18.7046C115.77 18.1624 116.211 17.7228 116.754 17.7228H118.976C119.519 17.7228 119.96 17.2832 119.96 16.741V5.09538C119.96 4.85747 120.153 4.6646 120.391 4.6646C123.965 4.6646 126.863 7.55756 126.863 11.1262V16.9066C126.863 17.3574 127.229 17.7228 127.68 17.7228H131.013C131.556 17.7228 131.996 18.1624 131.996 18.7046V23.3388C131.996 23.881 131.556 24.3206 131.013 24.3206H127.846C127.303 24.3206 126.863 24.7602 126.863 25.3024V38.4588C126.863 40.5206 127.807 41.4631 129.99 41.4631C130.195 41.4631 130.389 41.4533 130.571 41.4373Z" fill="white"/>
<path d="M144.095 44.0861C144.095 46.4638 142.351 48.1197 140.012 48.1197C137.631 48.1197 135.93 46.4638 135.93 44.0861C135.93 41.7509 137.631 40.0101 140.012 40.0101C142.351 40.0101 144.095 41.7509 144.095 44.0861Z" fill="white"/>
<path d="M156.387 8.74064C156.387 11.1183 154.644 12.7742 152.305 12.7742C149.923 12.7742 148.222 11.1183 148.222 8.74064C148.222 6.40541 149.923 4.6646 152.305 4.6646C154.644 4.6646 156.387 6.40541 156.387 8.74064Z" fill="white"/>
<path d="M149.697 48.2966C149.154 48.2966 148.714 47.857 148.714 47.3148V24.0653C148.714 20.3998 151.69 17.4282 155.362 17.4282C155.503 17.4282 155.617 17.5425 155.617 17.6835V47.3148C155.617 47.857 155.177 48.2966 154.634 48.2966H149.697Z" fill="white"/>
<path fill-rule="evenodd" clip-rule="evenodd" d="M191 33.1373C191 41.5421 184.176 48.3555 175.757 48.3555C167.339 48.3555 160.515 41.5421 160.515 33.1373C160.515 24.7326 167.339 17.9191 175.757 17.9191C184.176 17.9191 191 24.7326 191 33.1373ZM184.116 32.8919C184.116 37.6365 180.374 41.4828 175.757 41.4828C171.141 41.4828 167.399 37.6365 167.399 32.8919C167.399 28.1472 171.141 24.301 175.757 24.301C180.374 24.301 184.116 28.1472 184.116 32.8919Z" fill="white"/>
</svg>
