<svg width="36" height="37" viewBox="0 0 36 37" fill="none" xmlns="http://www.w3.org/2000/svg">
<path d="M34.0318 22.6929C29.7214 23.582 29.4251 22.1226 29.4251 22.1226C33.9761 15.3695 35.8786 6.79753 34.2368 4.69958C29.7578 -1.02323 22.0044 1.68329 21.875 1.75356L21.8333 1.76101C20.9818 1.58423 20.0287 1.47892 18.9576 1.46144C17.0072 1.42948 15.5277 1.97275 14.4051 2.82408C14.4051 2.82408 0.573799 -2.87388 1.21707 9.99034C1.35392 12.7271 5.13962 30.698 9.65506 25.2699C11.3055 23.2851 12.9001 21.6068 12.9001 21.6068C13.6921 22.133 14.6403 22.4014 15.6343 22.305L15.7115 22.2394C15.6875 22.4858 15.6984 22.7269 15.7424 23.0122C14.5792 24.3119 14.921 24.5401 12.5956 25.0188C10.2426 25.5037 11.6249 26.367 12.5274 26.5926C13.6215 26.8662 16.1527 27.2538 17.863 24.8596L17.7948 25.1328C18.2506 25.4978 18.5706 27.5074 18.517 29.329C18.4633 31.1507 18.4275 32.4013 18.7866 33.3782C19.1458 34.355 19.5037 36.553 22.5606 35.898C25.1149 35.3506 26.4386 33.9321 26.6227 31.5659C26.7534 29.8837 27.0491 30.1324 27.0678 28.6284L27.305 27.9165C27.5785 25.6362 27.3484 24.9005 28.9221 25.2427L29.3046 25.2763C30.4628 25.329 31.9788 25.09 32.8685 24.6764C34.7844 23.7873 35.9206 22.3028 34.0316 22.6929H34.0318V22.6929Z" stroke="white" stroke-width="1.06814" stroke-linecap="round" stroke-linejoin="round"/>
<path d="M18.0493 24C17.9306 28.243 18.0791 32.5156 18.4943 33.554C18.9097 34.5924 19.7988 36.6121 22.8559 35.9572C25.41 35.4096 26.3393 34.35 26.7426 32.0111C27.0396 30.2903 27.6122 25.5111 27.6856 24.532" stroke="white" stroke-width="1.06814" stroke-linecap="round" stroke-linejoin="round"/>
<path d="M14.3831 2.72891C14.3831 2.72891 0.542375 -2.92801 1.18582 9.93621C1.32267 12.673 5.10863 30.6444 9.62398 25.2161C11.274 23.231 12.7663 21.6741 12.7663 21.6741" stroke="white" stroke-width="1.06814" stroke-linecap="round" stroke-linejoin="round"/>
<path d="M21.86 1.69672C21.3809 1.84693 29.5591 -1.29292 34.2068 4.64591C35.8486 6.74395 33.9461 15.316 29.3951 22.0692" stroke="white" stroke-width="1.06814" stroke-linecap="round" stroke-linejoin="round"/>
<path d="M29.3935 22.0692C29.3935 22.0692 29.6901 23.529 34.0006 22.6393C35.8892 22.2492 34.7526 23.7339 32.8371 24.6234C31.2652 25.353 27.7408 25.54 27.6832 24.5318C27.5351 21.9307 29.5382 22.7209 29.3936 22.0692C29.2629 21.4822 28.3671 20.9061 27.7746 19.4695C27.2573 18.2156 20.6798 8.59981 29.5987 10.0279C29.9254 9.96032 27.2725 1.54444 18.9257 1.40759C10.5808 1.27074 10.8546 11.67 10.8546 11.67" stroke="white" stroke-width="1.06814" stroke-linecap="round" stroke-linejoin="bevel"/>
<path d="M15.7114 22.9588C14.548 24.2584 14.8901 24.4866 12.5646 24.9654C10.2116 25.4504 11.5941 26.3136 12.4963 26.5391C13.5904 26.8129 16.1216 27.2004 17.8319 24.8057C18.3527 24.0765 17.8288 22.9131 17.1134 22.6165C16.7677 22.4734 16.3055 22.2939 15.7114 22.9588V22.9588Z" stroke="white" stroke-width="1.06814" stroke-linecap="round" stroke-linejoin="round"/>
<path d="M15.6362 22.9358C15.519 22.1717 15.8873 21.2625 16.282 20.1987C16.8751 18.6026 18.2437 17.0063 17.1489 11.9434C16.3329 8.17056 10.8596 11.1582 10.8562 11.6698C10.8528 12.1812 11.1037 14.2628 10.7647 16.6868C10.3224 19.8499 12.7774 22.525 15.6044 22.2513" stroke="white" stroke-width="1.06814" stroke-linecap="round" stroke-linejoin="round"/>
<path d="M14.3313 11.5932C14.3066 11.7679 14.6512 12.2342 15.1005 12.2965C15.549 12.359 15.9329 11.9947 15.9572 11.8201C15.9815 11.6454 15.6374 11.4529 15.188 11.3904C14.7392 11.3277 14.3551 11.4189 14.3314 11.5932H14.3313Z" fill="white" stroke="white" stroke-width="0.356042"/>
<path d="M27.9929 11.2372C28.0172 11.4119 27.6731 11.8782 27.2237 11.9405C26.7749 12.003 26.391 11.6387 26.3664 11.4641C26.3427 11.2894 26.6869 11.0969 27.1358 11.0344C27.5847 10.9718 27.9685 11.0629 27.9929 11.2373V11.2372Z" fill="white" stroke="white" stroke-width="0.178021"/>
<path d="M29.5986 10.0278C29.6725 11.3984 29.3034 12.3319 29.2568 13.7908C29.1879 15.9115 30.2679 18.3387 28.6406 20.769" stroke="white" stroke-width="1.06814" stroke-linecap="round" stroke-linejoin="round"/>
</svg>
