<svg xmlns="http://www.w3.org/2000/svg" xml:space="preserve" viewBox="0 0 132.8 146.2">
  <path fill="#fad83b" d="M121.3 28.2 77.7 3.1a22.7 22.7 0 0 0-22.8 0L43.5 9.7v63.5A22.9 22.9 0 0 0 77.7 93a22.9 22.9 0 0 0 0-39.6c-3.5-2-7.5-3.1-11.4-3.1V36c3.9 0 7.9 1 11.4 3.1l12.4 7.2a22.8 22.8 0 0 1 11.4 19.8v14.3c0 8.1-4.3 15.7-11.4 19.8l-12.4 7.2a22.2 22.2 0 0 1-22.8 0l-12.4-7.2a22.8 22.8 0 0 1-11.4-19.8V16.8L11.4 28.2A22.8 22.8 0 0 0 0 48v50.3c0 8.1 4.3 15.7 11.4 19.8L55 143.2a22.7 22.7 0 0 0 22.8 0l43.6-25.1a22.8 22.8 0 0 0 11.4-19.8V48a23.3 23.3 0 0 0-11.5-19.8zm-69 27c-1.3 1-2.4 2.1-3.4 3.3v-16l3.4-2v14.7zM61 51c-1.2.3-2.3.6-3.4 1.1V37.7c1.1-.5 2.3-.8 3.4-1.1V51z"/>
</svg>
