<svg xmlns="http://www.w3.org/2000/svg" viewBox="0 0 153.1 98.6">
  <defs>
    <style>
      .cls-1{fill:#1a1a1a}
    </style>
  </defs>
  <g id="Layer_2" data-name="Layer 2">
    <g id="Layer_1-2" data-name="Layer 1">
      <g id="layer1">
        <g id="g3855">
          <g id="g945">
            <g id="g984">
              <g id="g920">
                <path id="path3804" d="M93.1 81h-13V21l13-3.6Z" class="cls-1"/>
                <g id="g898">
                  <g id="g893">
                    <path id="path19" fill="#4d64ae" d="M22.2 36.3a8.9 8.9 0 1 1 8.9-8.9 9 9 0 0 1-9 9Z"/>
                  </g>
                  <path id="path3819" d="M29.1 80.8a26.5 26.5 0 0 1-1.3 9.2 12.1 12.1 0 0 1-3.6 5.4 12.3 12.3 0 0 1-5.6 2.6 36.6 36.6 0 0 1-7.4.7 22.5 22.5 0 0 1-4.8-.5A13 13 0 0 1 3 96.9a6 6 0 0 1-2.1-1.8 3.6 3.6 0 0 1-.8-2.2 4.3 4.3 0 0 1 1.6-3.4 6.5 6.5 0 0 1 4.3-1.4 5 5 0 0 1 1.9.4 6 6 0 0 1 1.4.8 12 12 0 0 1 1.2 1l.8 1.2a7.6 7.6 0 0 0 1.5 1.5 2.3 2.3 0 0 0 1.2.4 1.9 1.9 0 0 0 1-.3 2 2 0 0 0 .7-1 7.2 7.2 0 0 0 .4-1.9 23.1 23.1 0 0 0 .1-3V40.5l13-3.6Z" class="cls-1"/>
                </g>
                <path id="path3802" d="M48.1 38v30a6.1 6.1 0 0 0 .5 2.4 6.5 6.5 0 0 0 1.4 1.8 7 7 0 0 0 2 1.3 6.1 6.1 0 0 0 2.4.5 4.2 4.2 0 0 0 1.6-.4 8.4 8.4 0 0 0 1.8-1.1 13.3 13.3 0 0 0 1.8-1.7 13 13 0 0 0 1.6-2.1V37.9h13v43h-13v-4a22.5 22.5 0 0 1-5.4 3.6 13.6 13.6 0 0 1-5.6 1.2 16.5 16.5 0 0 1-5.9-1 15.6 15.6 0 0 1-4.8-2.8 13.6 13.6 0 0 1-3.1-4.3 12.4 12.4 0 0 1-1.2-5.3V37.9Z" class="cls-1"/>
                <g id="g905">
                  <g id="g890">
                    <path id="path13" fill="#ca3c32" d="M105.8 36.3a8.9 8.9 0 1 1 8.9-8.9 9 9 0 0 1-9 9Z"/>
                    <path id="path25" fill="#9259a3" d="M127.2 36.3a8.9 8.9 0 1 1 8.9-8.9 9 9 0 0 1-9 9Z"/>
                    <path id="path31" fill="#399746" d="M116.5 17.8a8.9 8.9 0 1 1 8.9-8.9 8.9 8.9 0 0 1-9 8.9Z"/>
                  </g>
                  <path id="path3823" d="m100.1 40.6 13-3.6v44h-13Z" class="cls-1"/>
                </g>
                <path id="path3808" d="M140.1 58.8a37.6 37.6 0 0 0-3.7 1.8 21.9 21.9 0 0 0-3.5 2.3 12.8 12.8 0 0 0-2.5 2.7 5.1 5.1 0 0 0-1 3 8.5 8.5 0 0 0 .3 2.3 7 7 0 0 0 .8 1.9 5.2 5.2 0 0 0 1.3 1.3 2.7 2.7 0 0 0 1.5.4 6.3 6.3 0 0 0 3.2-1 41.3 41.3 0 0 0 3.6-2.4Zm13 22.1h-13v-3.4l-2 1.7a14.2 14.2 0 0 1-2.4 1.3 13.6 13.6 0 0 1-2.8 1 19.8 19.8 0 0 1-3.8.2 16 16 0 0 1-5.3-.8 12.2 12.2 0 0 1-4-2.3 10.2 10.2 0 0 1-2.5-3.5 11 11 0 0 1-.9-4.4 10.3 10.3 0 0 1 1-4.4 13.1 13.1 0 0 1 2.5-3.6 19.4 19.4 0 0 1 3.7-2.9 40.3 40.3 0 0 1 4.7-2.3l5.2-1.9 5.2-1.7 1.4-.3v-4.3a12 12 0 0 0-.4-3.4 5.8 5.8 0 0 0-1.1-2.3 4 4 0 0 0-1.8-1.3 6.6 6.6 0 0 0-2.4-.4 7.4 7.4 0 0 0-2.6.4 4.4 4.4 0 0 0-1.6 1 4 4 0 0 0-1 1.7 6.5 6.5 0 0 0-.2 2 9.5 9.5 0 0 1-.3 2.3 4.8 4.8 0 0 1-1 2 4.5 4.5 0 0 1-1.7 1.3 6.8 6.8 0 0 1-2.9.5 7.5 7.5 0 0 1-2.5-.4 6.2 6.2 0 0 1-2-1.1 6 6 0 0 1-1.2-1.8 5.6 5.6 0 0 1-.4-2.2 6.4 6.4 0 0 1 1.5-4 13.2 13.2 0 0 1 4-3.4 23.4 23.4 0 0 1 6-2.1 31 31 0 0 1 7-.8 32.2 32.2 0 0 1 8 .8 16.4 16.4 0 0 1 5.4 2.4 9.6 9.6 0 0 1 3.2 3.6 11 11 0 0 1 1 4.9Z" class="cls-1"/>
              </g>
            </g>
          </g>
        </g>
      </g>
    </g>
  </g>
</svg>
