<svg xmlns="http://www.w3.org/2000/svg" viewBox="0 0 940 940">
  <path fill="#1C3988" d="M829.9 174.8s-33.5 112.5-105.2 174l41.8 36.6c2.8 2.5 4 6.4 2.8 10-4.8 14.5-22.4 51-75.5 51-49 0-63.2-34.4-67.1-52.3-1.3-5.7 3-11 9.1-11.6l21.2-1.7c5.2-.4 9.9 3 11 7.7 2.4 11.6 10.5 30.2 38.6 22.2 39.6-11.3-97-80-97-80s-36.4 22.8-86.8 39.3l-2.5-6.6c-8.7-22.2-22.1-43.7-39.1-61.2a145 145 0 0 0-70.3-40c5.3 1.4 11.5 6.5 16 9.5 6.6 4.4 12.5 9.6 18 15.2 10.9 11.3 19.4 24.6 25.6 38.7a171.7 171.7 0 0 1 13.7 81.4c-4.4 44.1-20.8 132.7-82.4 193.6-85 84-81.7 103-46.7 204 25 71.8 6.4 112.8-6.5 130.5-4.1 5.7-13 5.6-17 0l-13.2-18.9a9.5 9.5 0 0 1-1.5-7.3c3.4-15.7 9.7-80.9-77.4-202.2a9.2 9.2 0 0 1 .6-11.5c18.4-21.2 82.3-100.4 89.6-188.5 8.5-103-89.2-96-103-186 0 0-94.3 68.7-86.4 253.2C148.2 755 131.4 858 15 903c-4 1.5-8.6.5-11.5-2.5A9.3 9.3 0 0 1 5 886.2c28.7-20 109.3-98.9 59-333.3C3.3 271 291.7 119.4 438.3 119.4c146.6 0 274 112.5 304.3 0 0 0-67.8-26.4-71.6-108.4-.2-5.7 4.7-10.3 10.7-10 26.7 1 95 10 116.6 73.5l66 11c3.6.6 6.6 3 7.9 6.1l10.8 27.2c1 2.3 2.8 4.2 5.1 5.3l46 21.1c5.6 2.6 7.5 9.2 4 14-9.5 13.4-36.3 33.5-108.2 15.6Z"/>
</svg>
